<mxfile host="app.diagrams.net" agent="Mozilla/5.0 (Windows NT 10.0; Win64; x64) AppleWebKit/537.36 (KHTML, like Gecko) Chrome/133.0.0.0 Safari/537.36" version="26.0.14">
  <diagram name="PÃ¡gina-1" id="GPwycDJdUcTrVKtpnifF">
    <mxGraphModel dx="472" dy="779" grid="1" gridSize="10" guides="1" tooltips="1" connect="1" arrows="1" fold="1" page="1" pageScale="1" pageWidth="827" pageHeight="1169" math="0" shadow="0">
      <root>
        <mxCell id="0" />
        <mxCell id="1" parent="0" />
        <mxCell id="Pttp_Jb4Wqnn4KuIHP1k-1" value="Menus&lt;div&gt;&lt;br&gt;&lt;/div&gt;" style="swimlane;fontStyle=1;align=center;verticalAlign=top;childLayout=stackLayout;horizontal=1;startSize=26;horizontalStack=0;resizeParent=1;resizeParentMax=0;resizeLast=0;collapsible=1;marginBottom=0;whiteSpace=wrap;html=1;autosize=1;" vertex="1" parent="1">
          <mxGeometry x="40" y="190" width="170" height="294" as="geometry" />
        </mxCell>
        <mxCell id="Pttp_Jb4Wqnn4KuIHP1k-2" value="Identificador: int&lt;div&gt;Nombre: String&lt;/div&gt;&lt;div&gt;ConsumoCalorico: int&lt;/div&gt;&lt;div&gt;PrecioVenta: int&lt;/div&gt;&lt;div&gt;PrecioCoste: int&lt;/div&gt;&lt;div&gt;TipoDieta: TipoDieta&lt;/div&gt;&lt;div&gt;TieneFrutosSecos: boolean&lt;/div&gt;&lt;div&gt;DiaDistribucion: date&lt;/div&gt;&lt;div&gt;UnidadesRepartidas: int&lt;/div&gt;&lt;div&gt;&lt;br&gt;&lt;/div&gt;" style="text;strokeColor=none;fillColor=none;align=left;verticalAlign=top;spacingLeft=4;spacingRight=4;overflow=hidden;rotatable=0;points=[[0,0.5],[1,0.5]];portConstraint=eastwest;whiteSpace=wrap;html=1;autosize=1;" vertex="1" parent="Pttp_Jb4Wqnn4KuIHP1k-1">
          <mxGeometry y="26" width="170" height="160" as="geometry" />
        </mxCell>
        <mxCell id="Pttp_Jb4Wqnn4KuIHP1k-3" value="" style="line;strokeWidth=1;fillColor=none;align=left;verticalAlign=middle;spacingTop=-1;spacingLeft=3;spacingRight=3;rotatable=0;labelPosition=right;points=[];portConstraint=eastwest;strokeColor=inherit;autosize=1;" vertex="1" parent="Pttp_Jb4Wqnn4KuIHP1k-1">
          <mxGeometry y="186" width="170" height="8" as="geometry" />
        </mxCell>
        <mxCell id="Pttp_Jb4Wqnn4KuIHP1k-4" value="&lt;div&gt;&lt;span style=&quot;background-color: transparent; color: light-dark(rgb(0, 0, 0), rgb(255, 255, 255));&quot;&gt;tieneCarne&lt;/span&gt;&lt;/div&gt;&lt;div&gt;&lt;span style=&quot;background-color: transparent; color: light-dark(rgb(0, 0, 0), rgb(255, 255, 255));&quot;&gt;esBajaEnCalorias&lt;/span&gt;&lt;/div&gt;&lt;div&gt;&lt;span style=&quot;background-color: transparent; color: light-dark(rgb(0, 0, 0), rgb(255, 255, 255));&quot;&gt;Getters and setters&lt;/span&gt;&lt;/div&gt;&lt;div&gt;Hascode and Equals&lt;/div&gt;&lt;div&gt;toString&lt;/div&gt;&lt;div&gt;&lt;br&gt;&lt;/div&gt;" style="text;strokeColor=none;fillColor=none;align=left;verticalAlign=top;spacingLeft=4;spacingRight=4;overflow=hidden;rotatable=0;points=[[0,0.5],[1,0.5]];portConstraint=eastwest;whiteSpace=wrap;html=1;autosize=1;" vertex="1" parent="Pttp_Jb4Wqnn4KuIHP1k-1">
          <mxGeometry y="194" width="170" height="100" as="geometry" />
        </mxCell>
        <mxCell id="Pttp_Jb4Wqnn4KuIHP1k-5" value="Clientes" style="swimlane;fontStyle=1;align=center;verticalAlign=top;childLayout=stackLayout;horizontal=1;startSize=26;horizontalStack=0;resizeParent=1;resizeParentMax=0;resizeLast=0;collapsible=1;marginBottom=0;whiteSpace=wrap;html=1;autosize=1;" vertex="1" parent="1">
          <mxGeometry x="310" y="190" width="160" height="234" as="geometry" />
        </mxCell>
        <mxCell id="Pttp_Jb4Wqnn4KuIHP1k-6" value="DNI: String&lt;div&gt;Nombre: String&lt;/div&gt;&lt;div&gt;Apellios: String&lt;/div&gt;&lt;div&gt;Edad: int&amp;nbsp;&lt;/div&gt;&lt;div&gt;DietaAsignada: TipoDieta&lt;/div&gt;&lt;div&gt;FechaInscripcion: date&lt;/div&gt;&lt;div&gt;esVip: boolean&lt;/div&gt;" style="text;strokeColor=none;fillColor=none;align=left;verticalAlign=top;spacingLeft=4;spacingRight=4;overflow=hidden;rotatable=0;points=[[0,0.5],[1,0.5]];portConstraint=eastwest;whiteSpace=wrap;html=1;autosize=1;" vertex="1" parent="Pttp_Jb4Wqnn4KuIHP1k-5">
          <mxGeometry y="26" width="160" height="110" as="geometry" />
        </mxCell>
        <mxCell id="Pttp_Jb4Wqnn4KuIHP1k-7" value="" style="line;strokeWidth=1;fillColor=none;align=left;verticalAlign=middle;spacingTop=-1;spacingLeft=3;spacingRight=3;rotatable=0;labelPosition=right;points=[];portConstraint=eastwest;strokeColor=inherit;autosize=1;" vertex="1" parent="Pttp_Jb4Wqnn4KuIHP1k-5">
          <mxGeometry y="136" width="160" height="8" as="geometry" />
        </mxCell>
        <mxCell id="Pttp_Jb4Wqnn4KuIHP1k-8" value="&lt;div&gt;&lt;span style=&quot;background-color: transparent; color: light-dark(rgb(0, 0, 0), rgb(255, 255, 255));&quot;&gt;hayQueHacerPromocion&lt;/span&gt;&lt;/div&gt;&lt;div&gt;&lt;span style=&quot;background-color: transparent; color: light-dark(rgb(0, 0, 0), rgb(255, 255, 255));&quot;&gt;Getters and setters&lt;/span&gt;&lt;/div&gt;&lt;div&gt;Hascode and Equals&lt;/div&gt;&lt;div&gt;toString&lt;/div&gt;&lt;div&gt;&lt;br&gt;&lt;/div&gt;" style="text;strokeColor=none;fillColor=none;align=left;verticalAlign=top;spacingLeft=4;spacingRight=4;overflow=hidden;rotatable=0;points=[[0,0.5],[1,0.5]];portConstraint=eastwest;whiteSpace=wrap;html=1;autosize=1;" vertex="1" parent="Pttp_Jb4Wqnn4KuIHP1k-5">
          <mxGeometry y="144" width="160" height="90" as="geometry" />
        </mxCell>
        <mxCell id="Pttp_Jb4Wqnn4KuIHP1k-9" value="" style="line;strokeWidth=1;fillColor=none;align=left;verticalAlign=middle;spacingTop=-1;spacingLeft=3;spacingRight=3;rotatable=0;labelPosition=right;points=[];portConstraint=eastwest;strokeColor=inherit;" vertex="1" parent="1">
          <mxGeometry x="210" y="260" width="100" height="8" as="geometry" />
        </mxCell>
      </root>
    </mxGraphModel>
  </diagram>
</mxfile>
